# AST/ASF file generated using VICON BodyLanguage
# -----------------------------------------------
:version 1.10
:name VICON
:units
  mass 1.0
  length 0.45
  angle deg
:documentation
   .ast/.asf automatically generated from VICON data using
   VICON BodyBuilder and BodyLanguage model FoxedUp or BRILLIANT.MOD
:root
   order TX TY TZ RX RY RZ
   axis XYZ
   position 0 0 0  
   orientation 0 0 0 
:bonedata
  begin
     id 1 
     name lhipjoint
     direction 0.610259 -0.730986 0.305356 
     length 2.50941 
     axis 0 0 0  XYZ
  end
  begin
     id 2 
     name lfemur
     direction 0.34202 -0.939693 0  
     length 7.48822  
     axis 0 0 20  XYZ
    dof rx ry rz
    limits (-160.0 20.0)
           (-70.0 70.0)
           (-60.0 70.0)
  end
  begin
     id 3 
     name ltibia
     direction 0.34202 -0.939693 0   
     length 7.60141   
     axis 0 0 20   XYZ
    dof rx
    limits (-10.0 170.0)
  end
  begin
     id 4 
     name lfoot
     direction 0.0673488 -0.185039 0.980421   
     length 2.04049   
     axis -90 7.62852e-016 20   XYZ
    dof rx rz
    limits (-45.0 90.0)
           (-70.0 20.0)
  end
  begin
     id 5 
     name ltoes
     direction 1.5356e-011 -4.21729e-011 1   
     length 1.02897   
     axis -90 7.62852e-016 20   XYZ
    dof rx
    limits (-90.0 20.0)
  end
  begin
     id 6 
     name rhipjoint
     direction -0.57612 -0.754205 0.315056   
     length 2.43216  
     axis 0 0 0  XYZ 
  end
  begin
     id 7 
     name rfemur
     direction -0.34202 -0.939693 0   
     length 7.42799   
     axis 0 0 -20   XYZ
    dof rx ry rz
    limits (-160.0 20.0)
           (-70.0 70.0)
           (-70.0 60.0)
  end
  begin
     id 8 
     name rtibia
     direction -0.34202 -0.939693 0   
     length 7.69484   
     axis 0 0 -20   XYZ
    dof rx
    limits (-10.0 170.0)
 end
 begin
     id 9 
     name rfoot
     direction -0.111837 -0.30727 0.945028   
     length 2.15769  
     axis -90 -7.62852e-016 -20   XYZ
    dof rx rz
    limits (-45.0 90.0)
           (-20.0 70.0)
  end
  begin
     id 10 
     name rtoes
     direction -1.53539e-011 -4.21878e-011 1   
     length 1.07391   
     axis -90 -7.62852e-016 -20   XYZ
    dof rx
    limits (-90.0 20.0)
  end
  begin
     id 11 
     name lowerback
     direction 0.00552624 0.990109 -0.140195   
     length 2.12403   
     axis 0 0 0   XYZ
    dof rx ry rz
    limits (-20.0 45.0)
           (-30.0 30.0)
           (-30.0 30.0)
  end
  begin
     id 12 
     name upperback
     direction 0.00361898 0.999976 -0.00584723   
     length 2.13232   
     axis 0 0 0   XYZ
    dof rx ry rz
    limits (-20.0 45.0)
           (-30.0 30.0)
           (-30.0 30.0)
  end
  begin
     id 13 
     name thorax
     direction -0.000331275 0.998253 0.0590847   
     length 2.17688   
     axis 0 0 0   XYZ
    dof rx ry rz
    limits (-20.0 45.0)
           (-30.0 30.0)
           (-30.0 30.0)
  end
  begin
     id 14 
     name lowerneck
     direction -0.0561561 0.979832 0.19177   
     length 1.64159   
     axis 0 0 0   XYZ
    dof rx ry rz
    limits (-20.0 45.0)
           (-30.0 30.0)
           (-30.0 30.0)
  end
  begin
     id 15 
     name upperneck
     direction 0.0827153 0.979385 -0.184293   
     length 1.68939   
     axis 0 0 0   XYZ
    dof rx ry rz
    limits (-20.0 45.0)
           (-30.0 30.0)
           (-30.0 30.0)
  end
  begin
     id 16
     name head
     direction 0.0278583 0.995936 -0.0856488  
     length 1.70207  
     axis 0 0 0   XYZ
    dof rx ry rz
    limits (-20.0 45.0)
           (-30.0 30.0)
           (-30.0 30.0)
  end
  begin
     id 17 
     name lclavicle
     direction 0.950993 0.301131 -0.0702275  
     length 3.41652  
     axis 0 0 0   XYZ
    dof ry rz
    limits (-20.0 10.0)
           (0.0 20.0)
  end
  begin
     id 18 
     name lhumerus
     direction 1 -4.48981e-011 -3.9662e-029   
     length 5.32955   
     axis 180 -30 -90   XYZ
    dof rx ry rz
    limits (-60.0 90.0)
           (-90.0 90.0)
           (-90.0 90.0)
  end
  begin
     id 19
     name lradius
     direction 1 -4.48925e-011 -9.0549e-027   
     length 3.69232   
     axis 180 -30 -90   XYZ
    dof rx
    limits (-10.0 170.0)
  end
  begin
     id 20
     name lwrist
     direction 1 -4.49007e-011 -1.49005e-026   
     length 1.84616   
     axis 9.0955e-015 90 90   XYZ
    dof ry
    limits (-180.0 0.0)
 end
  begin
     id 21 
     name lhand
     direction 1 -4.49016e-011 -2.98023e-026   
     length 0.536598   
     axis 1.90115e-014 90 90   XYZ
    dof rx rz
    limits (-90.0 90.0)
           (-45.0 45.0)
  end
  begin
     id 22 
     name lfingers
     direction 1 -4.48924e-011 -5.9578e-026   
     length 0.432619   
     axis 3.80223e-014 90 90   XYZ
    dof rx
    limits (0.0 90.0)
  end
  begin
     id 23
     name lthumb
     direction 0.707107 -6.34947e-011 0.707107   
     length 0.621157   
     axis -90 45 -3.84942e-014   XYZ
    dof rx rz
    limits (-45.0 45.0)
           (-45.0 45.0)
  end
  begin
     id 24 
     name rclavicle
     direction -0.955495 0.276497 -0.102848   
     length 3.36357  
     axis 0 0 0   XYZ 
    dof ry rz
    limits (-10.0 20.0)
           (-20.0 0.0)
  end
  begin
     id 25 
     name rhumerus
     direction -1 -4.48961e-011 3.30983e-027  
     length 5.23431   
     axis 180 30 90   XYZ
    dof rx ry rz
    limits (-90.0 60.0)
           (-90.0 90.0)
           (-90.0 90.0)
  end
  begin
     id 26 
     name rradius
     direction -1 -4.48965e-011 -6.63263e-027   
     length 3.55301   
     axis 180 30 90   XYZ
    dof rx
    limits (-10.0 170.0)
  end
  begin
     id 27 
     name rwrist
     direction -1 -4.48942e-011 -1.48958e-026   
     length 1.77651   
     axis 9.0955e-015 -90 -90   XYZ
    dof ry
    limits (-180.0 0.0)
  end
  begin
     id 28
     name rhand
     direction -1 -4.48977e-011 -2.97966e-026   
     length 0.772522   
     axis 1.90115e-014 -90 -90   XYZ
    dof rx rz
    limits (-90.0 90.0)
           (-45.0 45.0)
  end
  begin
     id 29
     name rfingers
     direction -1 -4.49135e-011 -5.96389e-026   
     length 0.622827   
     axis 3.80223e-014 -90 -90   XYZ
    dof rx
    limits (0.0 90.0)
  end
  begin
     id 30
     name rthumb
     direction -0.707107 -6.34969e-011 0.707107   
     length 0.894259   
     axis -90 -45 3.84942e-014   XYZ
    dof rx rz
    limits (-45.0 45.0)
           (-45.0 45.0)
  end
:hierarchy
  begin
    root lhipjoint rhipjoint lowerback
    lhipjoint lfemur
    lfemur ltibia
    ltibia lfoot
    lfoot ltoes
    rhipjoint rfemur
    rfemur rtibia
    rtibia rfoot
    rfoot rtoes
    lowerback upperback
    upperback thorax
    thorax lowerneck lclavicle rclavicle
    lowerneck upperneck
    upperneck head
    lclavicle lhumerus
    lhumerus lradius
    lradius lwrist
    lwrist lhand lthumb
    lhand lfingers
    rclavicle rhumerus
    rhumerus rradius
    rradius rwrist
    rwrist rhand rthumb
    rhand rfingers
  end

#!OML:ASF F:\VICON\USERDATA\INSTALL\rory3\rory3.ASF
:FULLY-SPECIFIED
:DEGREES
63
root 14.4324 17.8089 -11.2039 -65.0146 -87.427 64.549
lowerback 12.5589 1.70404 0.473951
upperback 1.30495 2.28265 0.21946
thorax -5.65837 1.08795 -0.426765
lowerneck -15.5025 -0.144633 -9.51804
upperneck 39.0298 -0.110238 4.05631
head 16.7163 -1.38778 3.35118
rclavicle 6.01324e-015 -7.95139e-016
rhumerus -34.0566 -17.7405 -70.9976
rradius 35.8504
rwrist 3.05355
rhand -15.762 7.932
rfingers 7.12502
rthumb 10.4297 -21.7893
lclavicle 6.01324e-015 -7.95139e-016
lhumerus -35.4464 20.5115 71.4137
lradius 31.6134
lwrist -5.28006
lhand -22.3318 22.8845
lfingers 7.12502
lthumb 4.08839 52.825
rfemur -1.0799 5.33922 7.81296
rtibia 22.8508
rfoot -15.5244 -3.57852
rtoes -16.7618
lfemur -5.58918 -11.7643 -2.33516
ltibia 20.2188
lfoot 8.30468 3.7791
ltoes -3.54118
64
root 14.4268 17.7831 -11.0594 -67.0001 -87.3269 66.5254
lowerback 12.5882 1.73617 0.315732
upperback 1.21595 2.3073 0.232432
thorax -5.77533 1.10404 -0.3312
lowerneck -15.4458 -0.129429 -9.68469
upperneck 39.1028 -0.139017 4.2835
head 16.7423 -1.39938 3.47986
rclavicle 7.65321e-015 -1.03368e-014
rhumerus -34.3645 -18.0414 -70.5429
rradius 35.7579
rwrist 3.05836
rhand -15.9854 7.94408
rfingers 7.12502
rthumb 10.2142 -21.7879
lclavicle 7.65321e-015 -1.03368e-014
lhumerus -35.5296 20.3369 71.4539
lradius 31.5127
lwrist -5.31795
lhand -22.4483 22.8148
lfingers 7.12502
lthumb 3.97585 52.7574
rfemur -1.07825 5.64229 7.18966
rtibia 22.919
rfoot -15.4729 -3.88996
rtoes -17.8207
lfemur -5.21758 -11.822 -2.53167
ltibia 20.041
lfoot 7.25403 3.24981
ltoes -11.7772
65
root 14.4254 17.7515 -10.9084 -66.8682 -87.3424 66.388
lowerback 12.6655 1.72256 0.351214
upperback 1.10875 2.30015 0.270801
thorax -5.93188 1.10001 -0.314381
lowerneck -15.2456 -0.106584 -9.59413
upperneck 39.015 -0.168362 4.29964
head 16.6458 -1.39338 3.45971
rclavicle -7.10655e-015 -5.1684e-015
rhumerus -34.6764 -18.1737 -70.1554
rradius 35.7188
rwrist 2.78277
rhand -16.0611 7.92991
rfingers 7.12502
rthumb 10.1412 -21.8057
lclavicle -7.10655e-015 -5.1684e-015
lhumerus -35.6358 19.9927 71.5302
lradius 31.5554
lwrist -5.21318
lhand -22.3389 23.1256
lfingers 7.12502
lthumb 4.08154 53.0662
rfemur -1.12462 5.85811 6.67799
rtibia 23.0613
rfoot -15.4361 -4.03067
rtoes -17.8437
lfemur -4.82668 -11.6717 -2.59204
ltibia 19.7624
lfoot 5.96042 2.88446
ltoes -19.7511
66
root 14.4258 17.7186 -10.7528 -63.9141 -87.5081 63.4391
lowerback 12.6381 1.68414 0.617263
upperback 1.08428 2.29139 0.337745
thorax -5.93484 1.09003 -0.391906
lowerneck -15.2271 -0.148109 -9.47096
upperneck 38.9612 -0.263755 4.27482
head 16.6215 -1.41458 3.40779
rclavicle -1.2921e-014 -1.59028e-015
rhumerus -34.8389 -18.5788 -69.7776
rradius 35.5931
rwrist 2.80091
rhand -16.1066 7.81227
rfingers 7.12502
rthumb 10.0973 -21.9255
lclavicle -1.2921e-014 -1.59028e-015
lhumerus -35.4744 19.3152 71.7265
lradius 31.5293
lwrist -4.79364
lhand -22.0022 23.3638
lfingers 7.12502
lthumb 4.40666 53.2979
rfemur -1.16912 6.11984 6.36324
rtibia 23.1975
rfoot -15.375 -4.15195
rtoes -17.2558
lfemur -4.50845 -11.2021 -2.46327
ltibia 19.3713
lfoot 4.8207 2.24532
ltoes -23.3164
67
root 14.4139 17.6895 -10.5861 -65.5639 -87.902 65.1662
lowerback 12.3781 1.7297 1.09604
upperback 1.07868 2.42226 0.431139
thorax -5.77887 1.14532 -0.577328
lowerneck -15.2552 -0.169162 -9.3867
upperneck 38.9485 -0.312277 4.25708
head 16.6262 -1.42294 3.37631
rclavicle 1.2424e-014 -1.55052e-014
rhumerus -35.0496 -19.4204 -69.1549
rradius 35.4005
rwrist 3.49629
rhand -16.1732 7.92878
rfingers 7.12502
rthumb 10.0331 -21.8121
lclavicle 1.2424e-014 -1.55052e-014
lhumerus -35.3754 18.9014 71.9532
lradius 31.4785
lwrist -4.69793
lhand -21.5471 23.0395
lfingers 7.12502
lthumb 4.84611 52.9641
rfemur -1.27712 6.69196 6.13487
rtibia 23.2949
rfoot -15.2967 -4.23772
rtoes -15.1931
lfemur -4.04307 -10.752 -2.35255
ltibia 18.8945
lfoot 3.40215 1.89915
ltoes -27.2284
68
root 14.3879 17.6609 -10.4128 -78.0174 -88.3915 77.7322
lowerback 11.9607 1.87554 1.53666
upperback 1.0493 2.67984 0.588077
thorax -5.56079 1.26629 -0.689233
lowerneck -15.1669 -0.139395 -9.34018
upperneck 38.9343 -0.267949 4.18719
head 16.5919 -1.40793 3.3425
rclavicle 3.6477e-014 3.18055e-015
rhumerus -35.3217 -20.0288 -68.4187
rradius 35.1795
rwrist 4.03363
rhand -16.3937 8.05059
rfingers 7.12502
rthumb 9.82034 -21.7004
lclavicle 3.6477e-014 3.18055e-015
lhumerus -35.5727 19.1444 72.1502
lradius 31.5224
lwrist -5.09548
lhand -21.6371 22.6985
lfingers 7.12502
lthumb 4.75921 52.6251
rfemur -1.43495 7.37651 5.81311
rtibia 23.3632
rfoot -15.2111 -3.97162
rtoes -10.8697
lfemur -3.33928 -10.3525 -2.3793
ltibia 18.3036
lfoot 2.0047 2.44544
ltoes -31.6564
69
root 14.3727 17.6313 -10.2407 -90.1969 -88.6026 89.8945
lowerback 11.7788 1.98364 1.8448
upperback 1.07057 2.86325 0.661972
thorax -5.42202 1.35187 -0.806904
lowerneck -15.204 -0.187698 -9.41303
upperneck 38.9746 -0.362286 4.3008
head 16.6322 -1.44397 3.39197
rclavicle 1.98785e-016 1.59028e-015
rhumerus -35.5679 -20.3363 -67.9385
rradius 35.0929
rwrist 4.18391
rhand -16.647 7.97957
rfingers 7.12502
rthumb 9.57591 -21.7828
lclavicle 1.98785e-016 1.59028e-015
lhumerus -35.49 19.1672 72.3006
lradius 31.4686
lwrist -5.11086
lhand -21.863 22.4767
lfingers 7.12502
lthumb 4.54106 52.408
rfemur -1.47015 7.8414 5.36316
rtibia 23.4128
rfoot -15.0065 -3.8263
rtoes -8.60615
lfemur -2.65068 -9.8657 -2.58833
ltibia 17.5715
lfoot 0.836833 3.13328
ltoes -33.3291
70
root 14.3714 17.6001 -10.0688 -93.3627 -88.5266 92.9689
lowerback 11.7866 2.02727 1.97032
upperback 1.12 2.93437 0.646162
thorax -5.36536 1.3843 -0.904188
lowerneck -15.3023 -0.273219 -9.62168
upperneck 38.9907 -0.484131 4.49173
head 16.6795 -1.49779 3.49633
rclavicle -1.09332e-014 -7.15625e-015
rhumerus -35.7661 -20.7705 -67.5131
rradius 35.0353
rwrist 4.33212
rhand -16.6072 7.89343
rfingers 7.12502
rthumb 9.61431 -21.8672
lclavicle -1.09332e-014 -7.15625e-015
lhumerus -35.2176 19.0356 72.4834
lradius 31.34
lwrist -4.87165
lhand -21.8503 22.2122
lfingers 7.12502
lthumb 4.5533 52.1433
rfemur -1.44154 8.09193 4.69668
rtibia 23.4911
rfoot -14.7532 -3.90695
rtoes -10.566
lfemur -2.01077 -9.774 -3.01074
ltibia 16.7969
lfoot -0.361643 3.43587
ltoes -31.3653
71
root 14.3658 17.571 -9.89344 -98.8223 -88.2389 98.2514
lowerback 11.8552 2.07825 1.81136
upperback 1.17071 2.97938 0.624793
thorax -5.35591 1.40954 -0.846124
lowerneck -15.25 -0.243311 -9.50485
upperneck 38.9303 -0.403903 4.30226
head 16.6261 -1.47022 3.40131
rclavicle -1.70955e-014 1.11319e-014
rhumerus -35.964 -20.88 -67.1287
rradius 35.0163
rwrist 4.26629
rhand -16.5346 7.86359
rfingers 7.12502
rthumb 9.68435 -21.8938
lclavicle -1.70955e-014 1.11319e-014
lhumerus -35.2941 19.5894 72.6282
lradius 31.4053
lwrist -5.42324
lhand -21.7022 21.9756
lfingers 7.12502
lthumb 4.6963 51.9035
rfemur -1.37012 8.25417 3.76665
rtibia 23.6093
rfoot -14.4443 -3.83398
rtoes -13.4503
lfemur -1.24564 -9.73894 -3.74314
ltibia 16.2091
lfoot -1.60167 3.33457
ltoes -29.6175
